<mxfile host="Electron" modified="2023-09-25T18:55:25.388Z" agent="Mozilla/5.0 (X11; Linux x86_64) AppleWebKit/537.36 (KHTML, like Gecko) draw.io/21.7.5 Chrome/114.0.5735.289 Electron/25.8.1 Safari/537.36" etag="fRYRzLCSXvyJSNWfpTFA" version="21.7.5" type="device">
  <diagram name="Page-1" id="JrqC85rF7xHL8zw7GxRt">
    <mxGraphModel dx="1434" dy="843" grid="1" gridSize="10" guides="1" tooltips="1" connect="1" arrows="1" fold="1" page="1" pageScale="1" pageWidth="850" pageHeight="1100" math="1" shadow="0">
      <root>
        <mxCell id="0" />
        <mxCell id="1" parent="0" />
        <mxCell id="6u4YVSHrsR9_weqPG5pH-8" value="" style="ellipse;whiteSpace=wrap;html=1;aspect=fixed;" parent="1" vertex="1">
          <mxGeometry x="130" y="280" width="110" height="110" as="geometry" />
        </mxCell>
        <mxCell id="6u4YVSHrsR9_weqPG5pH-9" value="" style="rounded=1;whiteSpace=wrap;html=1;" parent="1" vertex="1">
          <mxGeometry x="125" y="250" width="120" height="60" as="geometry" />
        </mxCell>
        <mxCell id="6u4YVSHrsR9_weqPG5pH-10" value="Robot Tilt Graphic" style="swimlane;whiteSpace=wrap;html=1;" parent="1" vertex="1">
          <mxGeometry x="60" y="170" width="250" height="250" as="geometry" />
        </mxCell>
        <mxCell id="6u4YVSHrsR9_weqPG5pH-13" value="Obstacle Detection Map" style="swimlane;whiteSpace=wrap;html=1;" parent="1" vertex="1">
          <mxGeometry x="60" y="430" width="250" height="250" as="geometry" />
        </mxCell>
        <mxCell id="6u4YVSHrsR9_weqPG5pH-15" value="" style="rounded=0;whiteSpace=wrap;html=1;" parent="6u4YVSHrsR9_weqPG5pH-13" vertex="1">
          <mxGeometry x="110" y="110" width="100" height="20" as="geometry" />
        </mxCell>
        <mxCell id="6u4YVSHrsR9_weqPG5pH-14" value="" style="rounded=0;whiteSpace=wrap;html=1;" parent="1" vertex="1">
          <mxGeometry x="80" y="480" width="100" height="20" as="geometry" />
        </mxCell>
        <mxCell id="6u4YVSHrsR9_weqPG5pH-16" value="" style="rounded=0;whiteSpace=wrap;html=1;" parent="1" vertex="1">
          <mxGeometry x="80" y="600" width="100" height="20" as="geometry" />
        </mxCell>
        <mxCell id="6u4YVSHrsR9_weqPG5pH-23" value="" style="group;rotation=90;" parent="1" vertex="1" connectable="0">
          <mxGeometry x="95" y="535" width="35" height="30" as="geometry" />
        </mxCell>
        <mxCell id="6u4YVSHrsR9_weqPG5pH-20" value="" style="ellipse;whiteSpace=wrap;html=1;aspect=fixed;" parent="6u4YVSHrsR9_weqPG5pH-23" vertex="1">
          <mxGeometry x="1.458333333333333" y="6.428571428571428" width="23.57142857142857" height="23.57142857142857" as="geometry" />
        </mxCell>
        <mxCell id="6u4YVSHrsR9_weqPG5pH-21" value="" style="rounded=1;whiteSpace=wrap;html=1;" parent="6u4YVSHrsR9_weqPG5pH-23" vertex="1">
          <mxGeometry width="35" height="12.857142857142856" as="geometry" />
        </mxCell>
        <mxCell id="M0uOQpU6QGLfCnw9UPp8-62" value="" style="group" vertex="1" connectable="0" parent="1">
          <mxGeometry x="330" y="160" width="485" height="290" as="geometry" />
        </mxCell>
        <mxCell id="M0uOQpU6QGLfCnw9UPp8-63" value="-" style="ellipse;whiteSpace=wrap;html=1;aspect=fixed;" vertex="1" parent="M0uOQpU6QGLfCnw9UPp8-62">
          <mxGeometry x="60.20689655172414" y="128.1395348837209" width="12.774193548387096" height="12.774193548387096" as="geometry" />
        </mxCell>
        <mxCell id="M0uOQpU6QGLfCnw9UPp8-64" value="PID" style="swimlane;whiteSpace=wrap;html=1;dashed=1;dashPattern=8 8;glass=0;" vertex="1" parent="M0uOQpU6QGLfCnw9UPp8-62">
          <mxGeometry x="127.10344827586206" width="127.10344827586206" height="249.53488372093022" as="geometry" />
        </mxCell>
        <mxCell id="M0uOQpU6QGLfCnw9UPp8-65" value="$$K_i\int_0^t e(\tau) d\tau$$" style="rounded=0;whiteSpace=wrap;html=1;" vertex="1" parent="M0uOQpU6QGLfCnw9UPp8-64">
          <mxGeometry x="23.413793103448274" y="114.65116279069765" width="80.2758620689655" height="40.46511627906976" as="geometry" />
        </mxCell>
        <mxCell id="M0uOQpU6QGLfCnw9UPp8-66" value="$$K_p e(t)$$" style="rounded=0;whiteSpace=wrap;html=1;" vertex="1" parent="M0uOQpU6QGLfCnw9UPp8-64">
          <mxGeometry x="23.413793103448274" y="47.20930232558138" width="80.2758620689655" height="40.46511627906976" as="geometry" />
        </mxCell>
        <mxCell id="M0uOQpU6QGLfCnw9UPp8-67" value="$$K_d \frac{de(t)}{dt}$$" style="rounded=0;whiteSpace=wrap;html=1;" vertex="1" parent="M0uOQpU6QGLfCnw9UPp8-64">
          <mxGeometry x="23.413793103448274" y="182.09302325581393" width="80.2758620689655" height="40.46511627906976" as="geometry" />
        </mxCell>
        <mxCell id="M0uOQpU6QGLfCnw9UPp8-68" value="" style="edgeStyle=orthogonalEdgeStyle;rounded=0;orthogonalLoop=1;jettySize=auto;html=1;" edge="1" parent="M0uOQpU6QGLfCnw9UPp8-62" source="M0uOQpU6QGLfCnw9UPp8-63" target="M0uOQpU6QGLfCnw9UPp8-65">
          <mxGeometry relative="1" as="geometry" />
        </mxCell>
        <mxCell id="M0uOQpU6QGLfCnw9UPp8-69" style="edgeStyle=orthogonalEdgeStyle;rounded=0;orthogonalLoop=1;jettySize=auto;html=1;exitX=1;exitY=0.5;exitDx=0;exitDy=0;entryX=0;entryY=0.5;entryDx=0;entryDy=0;" edge="1" parent="M0uOQpU6QGLfCnw9UPp8-62" source="M0uOQpU6QGLfCnw9UPp8-63" target="M0uOQpU6QGLfCnw9UPp8-66">
          <mxGeometry relative="1" as="geometry" />
        </mxCell>
        <mxCell id="M0uOQpU6QGLfCnw9UPp8-70" style="edgeStyle=orthogonalEdgeStyle;rounded=0;orthogonalLoop=1;jettySize=auto;html=1;exitX=1;exitY=0.5;exitDx=0;exitDy=0;entryX=0;entryY=0.5;entryDx=0;entryDy=0;" edge="1" parent="M0uOQpU6QGLfCnw9UPp8-62" source="M0uOQpU6QGLfCnw9UPp8-63" target="M0uOQpU6QGLfCnw9UPp8-67">
          <mxGeometry relative="1" as="geometry" />
        </mxCell>
        <mxCell id="M0uOQpU6QGLfCnw9UPp8-71" value="P" style="rounded=0;whiteSpace=wrap;html=1;" vertex="1" parent="M0uOQpU6QGLfCnw9UPp8-62">
          <mxGeometry x="354.55172413793105" y="114.65116279069765" width="80.27586206896551" height="40.46511627906976" as="geometry" />
        </mxCell>
        <mxCell id="M0uOQpU6QGLfCnw9UPp8-72" value="+" style="ellipse;whiteSpace=wrap;html=1;aspect=fixed;" vertex="1" parent="M0uOQpU6QGLfCnw9UPp8-62">
          <mxGeometry x="267.58620689655174" y="128.1395348837209" width="12.774193548387096" height="12.774193548387096" as="geometry" />
        </mxCell>
        <mxCell id="M0uOQpU6QGLfCnw9UPp8-73" value="" style="edgeStyle=orthogonalEdgeStyle;rounded=0;orthogonalLoop=1;jettySize=auto;html=1;" edge="1" parent="M0uOQpU6QGLfCnw9UPp8-62" source="M0uOQpU6QGLfCnw9UPp8-65" target="M0uOQpU6QGLfCnw9UPp8-72">
          <mxGeometry relative="1" as="geometry" />
        </mxCell>
        <mxCell id="M0uOQpU6QGLfCnw9UPp8-74" style="edgeStyle=orthogonalEdgeStyle;rounded=0;orthogonalLoop=1;jettySize=auto;html=1;exitX=1;exitY=0.5;exitDx=0;exitDy=0;entryX=0.5;entryY=0;entryDx=0;entryDy=0;" edge="1" parent="M0uOQpU6QGLfCnw9UPp8-62" source="M0uOQpU6QGLfCnw9UPp8-66" target="M0uOQpU6QGLfCnw9UPp8-72">
          <mxGeometry relative="1" as="geometry" />
        </mxCell>
        <mxCell id="M0uOQpU6QGLfCnw9UPp8-75" style="edgeStyle=orthogonalEdgeStyle;rounded=0;orthogonalLoop=1;jettySize=auto;html=1;exitX=1;exitY=0.5;exitDx=0;exitDy=0;entryX=0.5;entryY=1;entryDx=0;entryDy=0;" edge="1" parent="M0uOQpU6QGLfCnw9UPp8-62" source="M0uOQpU6QGLfCnw9UPp8-67" target="M0uOQpU6QGLfCnw9UPp8-72">
          <mxGeometry relative="1" as="geometry" />
        </mxCell>
        <mxCell id="M0uOQpU6QGLfCnw9UPp8-76" value="" style="edgeStyle=orthogonalEdgeStyle;rounded=0;orthogonalLoop=1;jettySize=auto;html=1;" edge="1" parent="M0uOQpU6QGLfCnw9UPp8-62" source="M0uOQpU6QGLfCnw9UPp8-77" target="M0uOQpU6QGLfCnw9UPp8-71">
          <mxGeometry relative="1" as="geometry" />
        </mxCell>
        <mxCell id="M0uOQpU6QGLfCnw9UPp8-77" value="+" style="ellipse;whiteSpace=wrap;html=1;aspect=fixed;" vertex="1" parent="M0uOQpU6QGLfCnw9UPp8-62">
          <mxGeometry x="321.10344827586204" y="128.1395348837209" width="12.774193548387096" height="12.774193548387096" as="geometry" />
        </mxCell>
        <mxCell id="M0uOQpU6QGLfCnw9UPp8-78" value="" style="edgeStyle=orthogonalEdgeStyle;rounded=0;orthogonalLoop=1;jettySize=auto;html=1;" edge="1" parent="M0uOQpU6QGLfCnw9UPp8-62" source="M0uOQpU6QGLfCnw9UPp8-72" target="M0uOQpU6QGLfCnw9UPp8-77">
          <mxGeometry relative="1" as="geometry" />
        </mxCell>
        <mxCell id="M0uOQpU6QGLfCnw9UPp8-79" value="+" style="ellipse;whiteSpace=wrap;html=1;aspect=fixed;" vertex="1" parent="M0uOQpU6QGLfCnw9UPp8-62">
          <mxGeometry x="454.8965517241379" y="128.1395348837209" width="12.774193548387096" height="12.774193548387096" as="geometry" />
        </mxCell>
        <mxCell id="M0uOQpU6QGLfCnw9UPp8-80" value="" style="edgeStyle=orthogonalEdgeStyle;rounded=0;orthogonalLoop=1;jettySize=auto;html=1;" edge="1" parent="M0uOQpU6QGLfCnw9UPp8-62" source="M0uOQpU6QGLfCnw9UPp8-71" target="M0uOQpU6QGLfCnw9UPp8-79">
          <mxGeometry relative="1" as="geometry" />
        </mxCell>
        <mxCell id="M0uOQpU6QGLfCnw9UPp8-81" style="edgeStyle=orthogonalEdgeStyle;rounded=0;orthogonalLoop=1;jettySize=auto;html=1;exitX=0;exitY=0.5;exitDx=0;exitDy=0;entryX=0.5;entryY=1;entryDx=0;entryDy=0;" edge="1" parent="M0uOQpU6QGLfCnw9UPp8-62" source="M0uOQpU6QGLfCnw9UPp8-82" target="M0uOQpU6QGLfCnw9UPp8-63">
          <mxGeometry relative="1" as="geometry" />
        </mxCell>
        <mxCell id="M0uOQpU6QGLfCnw9UPp8-82" value="+" style="ellipse;whiteSpace=wrap;html=1;aspect=fixed;" vertex="1" parent="M0uOQpU6QGLfCnw9UPp8-62">
          <mxGeometry x="388" y="276.5116279069767" width="12.774193548387096" height="12.774193548387096" as="geometry" />
        </mxCell>
        <mxCell id="M0uOQpU6QGLfCnw9UPp8-83" value="" style="endArrow=classic;html=1;rounded=0;entryX=0;entryY=0.5;entryDx=0;entryDy=0;" edge="1" parent="M0uOQpU6QGLfCnw9UPp8-62" target="M0uOQpU6QGLfCnw9UPp8-63">
          <mxGeometry width="50" height="50" relative="1" as="geometry">
            <mxPoint x="6.689655172413793" y="134.88372093023253" as="sourcePoint" />
            <mxPoint x="40.137931034482754" y="107.90697674418604" as="targetPoint" />
          </mxGeometry>
        </mxCell>
        <mxCell id="M0uOQpU6QGLfCnw9UPp8-84" value="" style="endArrow=classic;html=1;rounded=0;entryX=0.5;entryY=0;entryDx=0;entryDy=0;" edge="1" parent="M0uOQpU6QGLfCnw9UPp8-62" target="M0uOQpU6QGLfCnw9UPp8-77">
          <mxGeometry width="50" height="50" relative="1" as="geometry">
            <mxPoint x="327.7931034482759" y="80.93023255813952" as="sourcePoint" />
            <mxPoint x="334.48275862068965" y="94.41860465116277" as="targetPoint" />
          </mxGeometry>
        </mxCell>
        <mxCell id="M0uOQpU6QGLfCnw9UPp8-85" value="" style="endArrow=classic;html=1;rounded=0;entryX=0.5;entryY=0;entryDx=0;entryDy=0;" edge="1" parent="M0uOQpU6QGLfCnw9UPp8-62">
          <mxGeometry width="50" height="50" relative="1" as="geometry">
            <mxPoint x="461.3922068965518" y="80.93023255813952" as="sourcePoint" />
            <mxPoint x="461.3922068965518" y="128.1395348837209" as="targetPoint" />
          </mxGeometry>
        </mxCell>
        <mxCell id="M0uOQpU6QGLfCnw9UPp8-86" value="$$d_i$$" style="text;html=1;align=center;verticalAlign=middle;resizable=0;points=[];autosize=1;strokeColor=none;fillColor=none;" vertex="1" parent="M0uOQpU6QGLfCnw9UPp8-62">
          <mxGeometry x="304.3793103448276" y="59.348837209302324" width="70" height="30" as="geometry" />
        </mxCell>
        <mxCell id="M0uOQpU6QGLfCnw9UPp8-87" value="$$d_o$$" style="text;html=1;align=center;verticalAlign=middle;resizable=0;points=[];autosize=1;strokeColor=none;fillColor=none;" vertex="1" parent="M0uOQpU6QGLfCnw9UPp8-62">
          <mxGeometry x="438.1724137931035" y="59.348837209302324" width="70" height="30" as="geometry" />
        </mxCell>
        <mxCell id="M0uOQpU6QGLfCnw9UPp8-88" value="$$n$$" style="text;html=1;align=center;verticalAlign=middle;resizable=0;points=[];autosize=1;strokeColor=none;fillColor=none;" vertex="1" parent="M0uOQpU6QGLfCnw9UPp8-62">
          <mxGeometry x="374.62068965517244" y="215.81395348837208" width="60" height="30" as="geometry" />
        </mxCell>
        <mxCell id="M0uOQpU6QGLfCnw9UPp8-89" value="$$r$$" style="text;html=1;align=center;verticalAlign=middle;resizable=0;points=[];autosize=1;strokeColor=none;fillColor=none;" vertex="1" parent="M0uOQpU6QGLfCnw9UPp8-62">
          <mxGeometry y="114.65116279069765" width="50" height="30" as="geometry" />
        </mxCell>
        <mxCell id="M0uOQpU6QGLfCnw9UPp8-90" value="" style="edgeStyle=none;orthogonalLoop=1;jettySize=auto;html=1;rounded=0;entryX=0.5;entryY=0;entryDx=0;entryDy=0;" edge="1" parent="M0uOQpU6QGLfCnw9UPp8-62" target="M0uOQpU6QGLfCnw9UPp8-82">
          <mxGeometry width="80" relative="1" as="geometry">
            <mxPoint x="394.6896551724138" y="242.7906976744186" as="sourcePoint" />
            <mxPoint x="394.6896551724138" y="269.76744186046506" as="targetPoint" />
            <Array as="points" />
          </mxGeometry>
        </mxCell>
        <mxCell id="M0uOQpU6QGLfCnw9UPp8-91" style="edgeStyle=orthogonalEdgeStyle;rounded=0;orthogonalLoop=1;jettySize=auto;html=1;exitX=0.5;exitY=1;exitDx=0;exitDy=0;entryX=1;entryY=0.5;entryDx=0;entryDy=0;" edge="1" parent="M0uOQpU6QGLfCnw9UPp8-62" source="M0uOQpU6QGLfCnw9UPp8-79" target="M0uOQpU6QGLfCnw9UPp8-82">
          <mxGeometry relative="1" as="geometry" />
        </mxCell>
        <mxCell id="M0uOQpU6QGLfCnw9UPp8-92" value="Segway Robot GUI" style="swimlane;whiteSpace=wrap;html=1;" vertex="1" parent="1">
          <mxGeometry x="40" y="110" width="790" height="590" as="geometry" />
        </mxCell>
        <mxCell id="M0uOQpU6QGLfCnw9UPp8-93" value="" style="endArrow=none;html=1;rounded=0;" edge="1" parent="M0uOQpU6QGLfCnw9UPp8-92">
          <mxGeometry width="50" height="50" relative="1" as="geometry">
            <mxPoint x="360" y="410" as="sourcePoint" />
            <mxPoint x="520" y="410" as="targetPoint" />
          </mxGeometry>
        </mxCell>
        <mxCell id="M0uOQpU6QGLfCnw9UPp8-94" value="" style="ellipse;whiteSpace=wrap;html=1;aspect=fixed;" vertex="1" parent="M0uOQpU6QGLfCnw9UPp8-92">
          <mxGeometry x="387.1" y="380" width="30" height="30" as="geometry" />
        </mxCell>
        <mxCell id="M0uOQpU6QGLfCnw9UPp8-96" value="" style="endArrow=none;html=1;rounded=0;" edge="1" parent="M0uOQpU6QGLfCnw9UPp8-92">
          <mxGeometry width="50" height="50" relative="1" as="geometry">
            <mxPoint x="360" y="455" as="sourcePoint" />
            <mxPoint x="520" y="455" as="targetPoint" />
          </mxGeometry>
        </mxCell>
        <mxCell id="M0uOQpU6QGLfCnw9UPp8-97" value="" style="ellipse;whiteSpace=wrap;html=1;aspect=fixed;" vertex="1" parent="M0uOQpU6QGLfCnw9UPp8-92">
          <mxGeometry x="470" y="425" width="30" height="30" as="geometry" />
        </mxCell>
        <mxCell id="M0uOQpU6QGLfCnw9UPp8-98" value="" style="endArrow=none;html=1;rounded=0;" edge="1" parent="M0uOQpU6QGLfCnw9UPp8-92">
          <mxGeometry width="50" height="50" relative="1" as="geometry">
            <mxPoint x="360" y="500" as="sourcePoint" />
            <mxPoint x="520" y="500" as="targetPoint" />
          </mxGeometry>
        </mxCell>
        <mxCell id="M0uOQpU6QGLfCnw9UPp8-99" value="" style="ellipse;whiteSpace=wrap;html=1;aspect=fixed;" vertex="1" parent="M0uOQpU6QGLfCnw9UPp8-92">
          <mxGeometry x="417.1" y="470" width="30" height="30" as="geometry" />
        </mxCell>
        <mxCell id="M0uOQpU6QGLfCnw9UPp8-100" value="PID Sliders" style="swimlane;whiteSpace=wrap;html=1;" vertex="1" parent="M0uOQpU6QGLfCnw9UPp8-92">
          <mxGeometry x="332.1" y="350" width="200" height="200" as="geometry" />
        </mxCell>
        <mxCell id="M0uOQpU6QGLfCnw9UPp8-101" value="Serial Log" style="swimlane;whiteSpace=wrap;html=1;" vertex="1" parent="M0uOQpU6QGLfCnw9UPp8-92">
          <mxGeometry x="550" y="350" width="200" height="200" as="geometry" />
        </mxCell>
      </root>
    </mxGraphModel>
  </diagram>
</mxfile>
